<?xml version="1.0" encoding="UTF-8"?>
<!-- Created with Inkscape (http://www.inkscape.org/) -->
<svg width="549.72" height="279.27" version="1.1" xml:space="preserve" xmlns="http://www.w3.org/2000/svg" xmlns:cc="http://creativecommons.org/ns#" xmlns:dc="http://purl.org/dc/elements/1.1/" xmlns:rdf="http://www.w3.org/1999/02/22-rdf-syntax-ns#" xmlns:xlink="http://www.w3.org/1999/xlink"><metadata><rdf:RDF><cc:Work rdf:about=""><dc:format>image/svg+xml</dc:format><dc:type rdf:resource="http://purl.org/dc/dcmitype/StillImage"/></cc:Work></rdf:RDF></metadata><defs><clipPath><path d="m-112 420h820v0.1h-820v-0.1z"/></clipPath><linearGradient id="a" x1="53.463" x2="395.33" y1="540.36" y2="528.84" gradientUnits="userSpaceOnUse"><stop style="stop-color:#685083" offset="0"/><stop style="stop-color:#372847" offset="1"/></linearGradient></defs><g transform="matrix(1.25 0 0 -1.25 -112.59 873.2)"><g><g/></g><text transform="scale(1,-1)" x="163.44183" y="-685.36987" style="fill:#000000;font-family:'Liberation Sans';letter-spacing:0px;line-height:0%;word-spacing:0px" xml:space="preserve"><tspan x="163.44183" y="-685.36987" style="font-size:16px;line-height:1.25">Wikipedia editors are predominantly male</tspan></text>
<g><path d="m243.6 658.12v-78.1l81.725 65.825c-23.589 7.7779-51.633 12.275-81.725 12.275z" style="color:#000000;fill:#9580ac"/><path d="m325.32 645.85-81.725-65.825 89.525 63.05c-2.5448 0.95911-5.1382 1.8973-7.8 2.775z" style="color:#000000;fill:#bdadcf"/><path d="m395.3 580.72c4e-3 -0.23547 0.025-0.46404 0.025-0.7v0.7h-0.025zm0.025-0.7c0-43.136-67.929-78.1-151.72-78.1s-151.72 34.964-151.72 78.1v-24.975-0.975h0.025c1.024-42.682 68.542-77.125 151.7-77.125 83.166 0 150.69 34.437 151.7 77.125h0.025v0.975 24.975zm-303.45 0c0 0.18544 0.0225 0.36486 0.025 0.55h-0.025v-0.55z" style="color:#000000;fill:url(#a)"/><path d="m243.6 658.12c-83.796 0-151.72-34.964-151.72-78.1s67.929-78.1 151.72-78.1 151.72 34.964 151.72 78.1c0 25.9-24.489 48.865-62.2 63.075-5e-3 -7e-3 5e-3 -0.0184 0-0.025l-89.525-63.05v78.1z" style="color:#000000;fill:#685083"/><path d="m243.6 658.12c-83.796 0-151.72-34.964-151.72-78.1s67.929-78.1 151.72-78.1c33.488 0 64.428 5.592 89.525 15.05 5e-3 -7e-3 -5e-3 -0.018 0-0.025 1.4027 0.52857 2.7845 1.0725 4.15 1.625 0.93794 0.3794 1.8551 0.75956 2.775 1.15 0.0173 7e-3 0.0327 0.0177 0.05 0.025 1.0976 0.46626 2.2036 0.94331 3.275 1.425 0.76157 0.34251 1.502 0.69984 2.25 1.05 1.788 0.83698 3.5416 1.6954 5.25 2.575 1.6139 0.83087 3.1848 1.6825 4.725 2.55 0.0971 0.0547 0.20319 0.0952 0.3 0.15 0.12691 0.0719 0.2486 0.15288 0.375 0.225 1.4438 0.82398 2.8496 1.6698 4.225 2.525 0.0567 0.0353 0.11838 0.0647 0.175 0.1 0.29383 0.18327 0.58436 0.36533 0.875 0.55 0.0317 0.0201 0.0683 0.0298 0.1 0.05 0.68478 0.43598 1.3582 0.88136 2.025 1.325 0.19167 0.12753 0.38483 0.24684 0.575 0.375 0.31325 0.21121 0.61586 0.4371 0.925 0.65 0.7253 0.4995 1.4476 1.0164 2.15 1.525 0.41296 0.29892 0.82005 0.59798 1.225 0.9 0.28714 0.21425 0.59192 0.40921 0.875 0.625 0.80717 0.615 1.5763 1.2477 2.35 1.875 0.53426 0.43327 1.057 0.861 1.575 1.3 0.24442 0.20707 0.48422 0.41667 0.725 0.625 0.38854 0.33623 0.77104 0.66054 1.15 1 0.35311 0.31611 0.70527 0.63113 1.05 0.95 0.25248 0.23368 0.50206 0.46486 0.75 0.7 0.14706 0.13934 0.27955 0.28514 0.425 0.425 0.43014 0.41386 0.85901 0.83173 1.275 1.25 0.54594 0.54866 1.1037 1.0939 1.625 1.65 0.0124 0.0133 0.0126 0.0367 0.025 0.05 0.30333 0.32405 0.58014 0.64849 0.875 0.975 0.22144 0.24538 0.45838 0.47824 0.675 0.725 0.0942 0.10726 0.1817 0.21748 0.275 0.325 0.41042 0.47317 0.80743 0.94692 1.2 1.425 0.18642 0.22688 0.36763 0.44703 0.55 0.675 0.28712 0.35902 0.57302 0.71332 0.85 1.075 0.0942 0.12299 0.18196 0.2517 0.275 0.375 0.31305 0.41495 0.6254 0.83165 0.925 1.25 0.0418 0.0584 0.0834 0.11653 0.125 0.175 0.33737 0.4743 0.65509 0.94644 0.975 1.425 0.0844 0.12628 0.16681 0.24843 0.25 0.375 0.39373 0.59892 0.78393 1.1947 1.15 1.8 4e-3 6e-3 -4e-3 0.0188 0 0.025 0.35389 0.58569 0.69735 1.1835 1.025 1.775 0.0144 0.026 0.0357 0.049 0.05 0.075 0.0657 0.11901 0.13541 0.23076 0.2 0.35 0.102 0.18833 0.17568 0.3861 0.275 0.575 0.29404 0.55918 0.57963 1.1109 0.85 1.675 0.35042 0.73108 0.6899 1.461 1 2.2 7e-3 0.0171 0.0178 0.0329 0.025 0.05 7e-3 0.0171 0.0179 0.0329 0.025 0.05 0.20648 0.49534 0.38686 1.0012 0.575 1.5 0.14402 0.38191 0.29183 0.76612 0.425 1.15 0.22245 0.64106 0.43314 1.2786 0.625 1.925 0.19339 0.65114 0.36305 1.2937 0.525 1.95 0.0308 0.12474 0.0703 0.25008 0.1 0.375 0.12539 0.52878 0.24524 1.068 0.35 1.6 0.0181 0.0916 0.0325 0.18326 0.05 0.275 0.10728 0.56442 0.19118 1.1321 0.275 1.7 0.0873 0.59139 0.16344 1.18 0.225 1.775 7e-3 0.0668 0.0184 0.13316 0.025 0.2 0.0525 0.53261 0.0934 1.0646 0.125 1.6 8e-3 0.13266 0.0184 0.26717 0.025 0.4 0.033 0.6699 0.05 1.351 0.05 2.025 0 0.67575-0.0169 1.3534-0.05 2.025-7e-3 0.13386-0.0171 0.26631-0.025 0.4-0.0316 0.53542-0.0725 1.0673-0.125 1.6-7e-3 0.0674-0.018 0.13266-0.025 0.2-0.0616 0.59499-0.13771 1.1836-0.225 1.775-0.0838 0.56787-0.16772 1.1356-0.275 1.7-0.0173 0.0909-0.0321 0.18424-0.05 0.275-0.1047 0.53072-0.22476 1.0725-0.35 1.6-0.0299 0.12632-0.0689 0.24887-0.1 0.375-0.32175 1.303-0.7051 2.5929-1.15 3.875-0.13317 0.38388-0.28098 0.76809-0.425 1.15-0.18814 0.49877-0.36852 1.0047-0.575 1.5-7e-3 0.0171-0.0178 0.0329-0.025 0.05-7e-3 0.0172-0.0178 0.0328-0.025 0.05-0.3101 0.73903-0.64958 1.4689-1 2.2-0.27037 0.56408-0.55596 1.1158-0.85 1.675-0.0994 0.18908-0.1729 0.3865-0.275 0.575-0.0633 0.11686-0.13568 0.23336-0.2 0.35-0.34416 0.6238-0.70167 1.2577-1.075 1.875-0.36658 0.60636-0.75569 1.2001-1.15 1.8-0.0823 0.1252-0.1665 0.25009-0.25 0.375-0.31664 0.47368-0.64126 0.95549-0.975 1.425-0.0409 0.0575-0.0838 0.11752-0.125 0.175-0.2996 0.41835-0.61195 0.83505-0.925 1.25-0.0928 0.12299-0.18104 0.25231-0.275 0.375-0.27691 0.36149-0.56296 0.71618-0.85 1.075-0.17954 0.22449-0.36654 0.45157-0.55 0.675-0.39059 0.47536-0.79175 0.95451-1.2 1.425-0.0922 0.10629-0.18191 0.21896-0.275 0.325-0.51786 0.5896-1.0297 1.1683-1.575 1.75-0.52404 0.55952-1.076 1.098-1.625 1.65-0.41599 0.41828-0.84486 0.83614-1.275 1.25-0.14366 0.13823-0.27978 0.28727-0.425 0.425-0.24532 0.23246-0.50024 0.46897-0.75 0.7-0.34376 0.31816-0.6979 0.63459-1.05 0.95-0.37402 0.33483-0.76666 0.66832-1.15 1-0.23918 0.20699-0.48222 0.41925-0.725 0.625-0.51691 0.43791-1.0419 0.86779-1.575 1.3-0.7737 0.62731-1.5428 1.26-2.35 1.875-0.0145 0.011-0.0355 0.014-0.05 0.025-0.26865 0.20456-0.5527 0.39683-0.825 0.6-0.40495 0.30202-0.81204 0.60108-1.225 0.9-0.70242 0.50863-1.4247 1.0255-2.15 1.525-0.30912 0.21277-0.61178 0.43892-0.925 0.65-0.189 0.12744-0.38452 0.24818-0.575 0.375-0.66678 0.44364-1.3402 0.88902-2.025 1.325-0.0312 0.0199-0.0687 0.0301-0.1 0.05-0.2874 0.18266-0.58448 0.36871-0.875 0.55-0.0567 0.0353-0.11821 0.0647-0.175 0.1-1.3754 0.85524-2.7812 1.701-4.225 2.525-0.12747 0.0728-0.247 0.1525-0.375 0.225-0.0162 9e-3 -0.0338 0.0158-0.05 0.025-0.0805 0.0456-0.16928 0.0795-0.25 0.125-1.5402 0.86747-3.1111 1.7191-4.725 2.55-1.7084 0.87956-3.462 1.738-5.25 2.575-0.74382 0.34799-1.4928 0.70957-2.25 1.05-0.15598 0.0701-0.31846 0.13017-0.475 0.2-0.93434 0.4166-1.8959 0.84506-2.85 1.25-0.91132 0.3867-1.846 0.77414-2.775 1.15-1.3655 0.55249-2.7473 1.0964-4.15 1.625-5e-3 -7e-3 5e-3 -0.0184 0-0.025-25.097 9.458-56.037 15.05-89.525 15.05z" style="color:#000000;fill:none;stroke-linejoin:round;stroke-width:.4;stroke:#5b4a71"/><path d="m395.3 580.72c4e-3 -0.23547 0.025-0.46404 0.025-0.7v0.7h-0.025zm0.025-0.7c0-43.136-67.929-78.1-151.72-78.1s-151.72 34.964-151.72 78.1v-24.975-0.975h0.025c1.024-42.682 68.542-77.125 151.7-77.125 83.166 0 150.69 34.437 151.7 77.125h0.025v0.975 24.975zm-303.45 0c0 0.18544 0.0225 0.36486 0.025 0.55h-0.025v-0.55z" style="color:#000000;fill:none;stroke-linejoin:round;stroke-width:.4;stroke:#3c2a53"/><rect transform="matrix(.8 0 0 -.8 0 842)" x="531.36" y="285.06" width="27.208" height="27.208" rx="2.5" ry="2.5" style="color:#000000;fill:#685083"/><text transform="scale(1,-1)" x="456.29773" y="-598.49127" style="fill:#000000;font-family:'Liberation Sans';letter-spacing:0px;line-height:0%;word-spacing:0px" xml:space="preserve"><tspan x="456.29773" y="-598.49127" style="font-size:12.8px;line-height:1.25">Male</tspan></text>
<rect transform="scale(1,-1)" x="425.09" y="-582.75" width="21.767" height="21.767" rx="2" ry="2" style="color:#000000;fill:#9580ac"/><text transform="scale(1,-1)" x="456.29773" y="-567.2912" style="fill:#000000;font-family:'Liberation Sans';letter-spacing:0px;line-height:0%;word-spacing:0px" xml:space="preserve"><tspan x="456.29773" y="-567.2912" style="font-size:12.8px;line-height:1.25">Female</tspan></text>
<rect transform="scale(1,-1)" x="425.09" y="-551.55" width="21.767" height="21.767" rx="2" ry="2" style="color:#000000;fill:#bdadcf"/><text transform="scale(1,-1)" x="456.29773" y="-544.46075" style="fill:#000000;font-family:'Liberation Sans';letter-spacing:0px;line-height:0%;word-spacing:0px" xml:space="preserve"><tspan x="456.29773" y="-544.46075" style="font-size:12.8px;line-height:111%">Transsexual</tspan><tspan x="456.29773" y="-530.25275" style="font-size:12.8px;line-height:111%">Transgender</tspan></text>
</g><text transform="scale(1,-1)" x="137.17226" y="-648.43311" style="fill:#000000;font-family:'Liberation Sans';letter-spacing:0px;line-height:0%;word-spacing:0px" xml:space="preserve"><tspan x="137.17226" y="-648.43311" style="font-family:'Liberation Sans';font-size:12.8px;line-height:125%">90%</tspan></text>
<text transform="scale(1,-1)" x="272.99188" y="-659.87286" style="fill:#000000;font-family:'Liberation Sans';letter-spacing:0px;line-height:0%;word-spacing:0px" xml:space="preserve"><tspan x="272.99188" y="-659.87286" style="font-family:'Liberation Sans';font-size:12.8px;line-height:125%">9%</tspan></text>
<text transform="scale(1,-1)" x="329.22278" y="-648.40808" style="fill:#000000;font-family:'Liberation Sans';letter-spacing:0px;line-height:0%;word-spacing:0px" xml:space="preserve"><tspan x="329.22278" y="-648.40808" style="font-family:'Liberation Sans';font-size:12.8px;line-height:125%">1%</tspan></text>
</g></svg>
